<mxfile host="app.diagrams.net" modified="2023-06-28T16:43:09.747Z" agent="Mozilla/5.0 (Windows NT 10.0; Win64; x64) AppleWebKit/537.36 (KHTML, like Gecko) Chrome/114.0.0.0 Safari/537.36" etag="FEqSykAD2UpE3y-N8wPF" version="21.5.1" type="github">
  <diagram name="第 1 页" id="L5eAtE8TNdtluyB96lq8">
    <mxGraphModel dx="4680" dy="2125" grid="1" gridSize="10" guides="1" tooltips="1" connect="1" arrows="1" fold="1" page="1" pageScale="1" pageWidth="1920" pageHeight="1200" math="0" shadow="0">
      <root>
        <mxCell id="0" />
        <mxCell id="1" parent="0" />
        <mxCell id="Eh--7KShzJtrLP3c-lmi-1" value="" style="shape=stencil(fZbdcgIhDIWfZm8zQAg/17Z9j85U606tdqz9e/tmZ0c0uJ47xP0I5JwEBl59bp8/1kNwn6fj4W39M76ctgM/DCGM++36OJ50NPDjwKvN4bh+PR6+9i/z74/n6ctp9H74nlb4nbmSKZeJCu5vngmZ6jzzNAO7cX8FVKEsBuBKrgKg9oAE8gkCbLeUhEoEQKSUDZDLeWYRKIl8MEDRmHwfyBrBG6Amyu4+kDxxMoB3jhwgYu7TVAsVkFcWCs4CTBEoF4RctKeOxHIf8IXYpikHikAIf+MNUW94AGSSaoAoFIE3AlOyeWU+p2E5S9yfQZcQILVuQOwZdJNoS9Ls3wA5u2XZTIHECqeJ9kDpSaauRiNVcAY1QhdBzeLBli5WazpkSsBLV25uRaqWRyFawTQzRRIQYirJzq5atkBqLfouwqUxLBepthWb10vrWZY6UOAeyKCCtDV625mm9gmUC4Wc3VLJMMIE1BsA2FW9JraVlQB7n3c9oMKhCLEvIM1zBPZ25/umNQ1tVEC2G+fFCC8g398O2hNQuQlVu752DBfA+q0ptnqO5JFmeuIuo9DY7KjY71UxdJV4EntifPWorW++R/dC4t7V3DlIB5cHx2bc7eb3yvX//QNFp+bHDT/+Aw==);lineShape=1;sketch=1;hachureGap=4;jiggle=2;curveFitting=1;fontFamily=Architects Daughter;fontSource=https%3A%2F%2Ffonts.googleapis.com%2Fcss%3Ffamily%3DArchitects%2BDaughter;fontSize=20;" vertex="1" parent="1">
          <mxGeometry x="2517.2308839693696" y="594.3910397625236" width="31.15026514743704" height="31.10157477571799" as="geometry" />
        </mxCell>
        <mxCell id="Eh--7KShzJtrLP3c-lmi-2" value="分页" style="whiteSpace=wrap;html=1;aspect=fixed;sketch=1;hachureGap=4;jiggle=2;curveFitting=1;fontFamily=Architects Daughter;fontSource=https%3A%2F%2Ffonts.googleapis.com%2Fcss%3Ffamily%3DArchitects%2BDaughter;fontSize=20;strokeWidth=1;rounded=0;glass=0;fillColor=#1ba1e2;fontColor=#ffffff;strokeColor=#006EAF;" vertex="1" parent="1">
          <mxGeometry x="460" y="140" width="2470" height="2470" as="geometry" />
        </mxCell>
        <mxCell id="Eh--7KShzJtrLP3c-lmi-3" value="" style="rounded=0;whiteSpace=wrap;html=1;sketch=1;hachureGap=4;jiggle=2;curveFitting=1;fontFamily=Architects Daughter;fontSource=https%3A%2F%2Ffonts.googleapis.com%2Fcss%3Ffamily%3DArchitects%2BDaughter;fontSize=20;fillColor=#0050ef;fontColor=#ffffff;strokeColor=#001DBC;" vertex="1" parent="1">
          <mxGeometry x="460" y="140" width="2470" height="140" as="geometry" />
        </mxCell>
        <mxCell id="Eh--7KShzJtrLP3c-lmi-4" value="人事管理系统" style="text;html=1;strokeColor=none;fillColor=none;align=center;verticalAlign=middle;whiteSpace=wrap;rounded=0;fontSize=30;fontFamily=Architects Daughter;" vertex="1" parent="1">
          <mxGeometry x="420" y="210" width="330" height="30" as="geometry" />
        </mxCell>
        <mxCell id="Eh--7KShzJtrLP3c-lmi-5" value="Personnel management system" style="text;html=1;strokeColor=none;fillColor=none;align=center;verticalAlign=middle;whiteSpace=wrap;rounded=0;fontSize=30;fontFamily=Architects Daughter;" vertex="1" parent="1">
          <mxGeometry x="830" y="210" width="460" height="30" as="geometry" />
        </mxCell>
        <mxCell id="Eh--7KShzJtrLP3c-lmi-6" value="退出" style="text;html=1;strokeColor=none;fillColor=none;align=center;verticalAlign=middle;whiteSpace=wrap;rounded=0;fontSize=30;fontFamily=Architects Daughter;" vertex="1" parent="1">
          <mxGeometry x="2780" y="210" width="80" height="30" as="geometry" />
        </mxCell>
        <mxCell id="Eh--7KShzJtrLP3c-lmi-7" value="超级管理员" style="text;html=1;align=center;verticalAlign=middle;resizable=0;points=[];autosize=1;strokeColor=none;fillColor=none;fontSize=30;fontFamily=Architects Daughter;" vertex="1" parent="1">
          <mxGeometry x="2565" y="200" width="170" height="50" as="geometry" />
        </mxCell>
        <mxCell id="Eh--7KShzJtrLP3c-lmi-8" value="" style="rounded=0;whiteSpace=wrap;html=1;sketch=1;hachureGap=4;jiggle=2;curveFitting=1;fontFamily=Architects Daughter;fontSource=https%3A%2F%2Ffonts.googleapis.com%2Fcss%3Ffamily%3DArchitects%2BDaughter;fontSize=30;" vertex="1" parent="1">
          <mxGeometry x="460" y="270" width="570" height="1975" as="geometry" />
        </mxCell>
        <mxCell id="Eh--7KShzJtrLP3c-lmi-9" value="" style="line;strokeWidth=2;html=1;sketch=1;hachureGap=4;jiggle=2;curveFitting=1;fontFamily=Architects Daughter;fontSource=https%3A%2F%2Ffonts.googleapis.com%2Fcss%3Ffamily%3DArchitects%2BDaughter;fontSize=20;" vertex="1" parent="1">
          <mxGeometry x="450" y="875" width="560" height="50" as="geometry" />
        </mxCell>
        <mxCell id="Eh--7KShzJtrLP3c-lmi-10" value="" style="line;strokeWidth=2;html=1;sketch=1;hachureGap=4;jiggle=2;curveFitting=1;fontFamily=Architects Daughter;fontSource=https://fonts.googleapis.com/css?family=Architects+Daughter;fontSize=20;" vertex="1" parent="1">
          <mxGeometry x="450" y="1015" width="560" height="50" as="geometry" />
        </mxCell>
        <mxCell id="Eh--7KShzJtrLP3c-lmi-11" value="" style="line;strokeWidth=2;html=1;sketch=1;hachureGap=4;jiggle=2;curveFitting=1;fontFamily=Architects Daughter;fontSource=https://fonts.googleapis.com/css?family=Architects+Daughter;fontSize=20;" vertex="1" parent="1">
          <mxGeometry x="460" y="1155" width="560" height="50" as="geometry" />
        </mxCell>
        <mxCell id="Eh--7KShzJtrLP3c-lmi-12" value="" style="line;strokeWidth=2;html=1;sketch=1;hachureGap=4;jiggle=2;curveFitting=1;fontFamily=Architects Daughter;fontSource=https://fonts.googleapis.com/css?family=Architects+Daughter;fontSize=20;" vertex="1" parent="1">
          <mxGeometry x="450" y="1295" width="560" height="50" as="geometry" />
        </mxCell>
        <mxCell id="Eh--7KShzJtrLP3c-lmi-14" value="&lt;font style=&quot;font-size: 45px;&quot;&gt;入职员工信息&lt;/font&gt;" style="text;html=1;strokeColor=none;fillColor=none;align=center;verticalAlign=middle;whiteSpace=wrap;rounded=0;fontSize=20;fontFamily=Architects Daughter;" vertex="1" parent="1">
          <mxGeometry x="560" y="955" width="330" height="30" as="geometry" />
        </mxCell>
        <mxCell id="Eh--7KShzJtrLP3c-lmi-15" value="&lt;font style=&quot;font-size: 45px;&quot;&gt;人事部门管理&lt;/font&gt;" style="text;html=1;strokeColor=none;fillColor=none;align=center;verticalAlign=middle;whiteSpace=wrap;rounded=0;fontSize=20;fontFamily=Architects Daughter;" vertex="1" parent="1">
          <mxGeometry x="560" y="1085" width="330" height="80" as="geometry" />
        </mxCell>
        <mxCell id="Eh--7KShzJtrLP3c-lmi-16" value="&lt;font style=&quot;font-size: 45px;&quot;&gt;寝室部门管理&lt;/font&gt;" style="text;html=1;strokeColor=none;fillColor=none;align=center;verticalAlign=middle;whiteSpace=wrap;rounded=0;fontSize=20;fontFamily=Architects Daughter;" vertex="1" parent="1">
          <mxGeometry x="565" y="1215" width="330" height="80" as="geometry" />
        </mxCell>
        <mxCell id="Eh--7KShzJtrLP3c-lmi-18" value="" style="triangle;whiteSpace=wrap;html=1;sketch=1;hachureGap=4;jiggle=2;curveFitting=1;fontFamily=Architects Daughter;fontSource=https%3A%2F%2Ffonts.googleapis.com%2Fcss%3Ffamily%3DArchitects%2BDaughter;fontSize=20;rotation=90;" vertex="1" parent="1">
          <mxGeometry x="910" y="1220" width="50" height="70" as="geometry" />
        </mxCell>
        <mxCell id="Eh--7KShzJtrLP3c-lmi-19" value="" style="triangle;whiteSpace=wrap;html=1;sketch=1;hachureGap=4;jiggle=2;curveFitting=1;fontFamily=Architects Daughter;fontSource=https%3A%2F%2Ffonts.googleapis.com%2Fcss%3Ffamily%3DArchitects%2BDaughter;fontSize=20;rotation=90;" vertex="1" parent="1">
          <mxGeometry x="910" y="1090" width="50" height="70" as="geometry" />
        </mxCell>
        <mxCell id="Eh--7KShzJtrLP3c-lmi-20" value="&lt;br&gt;&lt;p style=&quot;box-sizing: border-box; margin: 0px; padding: 0px; color: rgb(255, 255, 255); font-family: -apple-system, BlinkMacSystemFont, &amp;quot;Segoe UI&amp;quot;, &amp;quot;PingFang SC&amp;quot;, &amp;quot;Hiragino Sans GB&amp;quot;, &amp;quot;Microsoft YaHei&amp;quot;, &amp;quot;Helvetica Neue&amp;quot;, Helvetica, Arial, sans-serif, &amp;quot;Apple Color Emoji&amp;quot;, &amp;quot;Segoe UI Emoji&amp;quot;, &amp;quot;Segoe UI Symbol&amp;quot;; font-size: 45px; font-style: normal; font-variant-ligatures: normal; font-variant-caps: normal; font-weight: 400; letter-spacing: normal; orphans: 2; text-align: center; text-indent: 0px; text-transform: none; widows: 2; word-spacing: 0px; -webkit-text-stroke-width: 0px; background-color: rgb(24, 51, 111); text-decoration-thickness: initial; text-decoration-style: initial; text-decoration-color: initial;&quot;&gt;Copyright @2023 武汉柯基大学&lt;/p&gt;&lt;span style=&quot;color: rgb(255, 255, 255); font-family: -apple-system, BlinkMacSystemFont, &amp;quot;Segoe UI&amp;quot;, &amp;quot;PingFang SC&amp;quot;, &amp;quot;Hiragino Sans GB&amp;quot;, &amp;quot;Microsoft YaHei&amp;quot;, &amp;quot;Helvetica Neue&amp;quot;, Helvetica, Arial, sans-serif, &amp;quot;Apple Color Emoji&amp;quot;, &amp;quot;Segoe UI Emoji&amp;quot;, &amp;quot;Segoe UI Symbol&amp;quot;; font-size: 45px; font-style: normal; font-variant-ligatures: normal; font-variant-caps: normal; font-weight: 400; letter-spacing: normal; orphans: 2; text-align: center; text-indent: 0px; text-transform: none; widows: 2; word-spacing: 0px; -webkit-text-stroke-width: 0px; background-color: rgb(24, 51, 111); text-decoration-thickness: initial; text-decoration-style: initial; text-decoration-color: initial; float: none; display: inline !important;&quot;&gt;网络信息中心 服务电话：66666666666&lt;/span&gt;&lt;p style=&quot;box-sizing: border-box; margin: 0px; padding: 0px; color: rgb(255, 255, 255); font-family: -apple-system, BlinkMacSystemFont, &amp;quot;Segoe UI&amp;quot;, &amp;quot;PingFang SC&amp;quot;, &amp;quot;Hiragino Sans GB&amp;quot;, &amp;quot;Microsoft YaHei&amp;quot;, &amp;quot;Helvetica Neue&amp;quot;, Helvetica, Arial, sans-serif, &amp;quot;Apple Color Emoji&amp;quot;, &amp;quot;Segoe UI Emoji&amp;quot;, &amp;quot;Segoe UI Symbol&amp;quot;; font-size: 45px; font-style: normal; font-variant-ligatures: normal; font-variant-caps: normal; font-weight: 400; letter-spacing: normal; orphans: 2; text-align: center; text-indent: 0px; text-transform: none; widows: 2; word-spacing: 0px; -webkit-text-stroke-width: 0px; background-color: rgb(24, 51, 111); text-decoration-thickness: initial; text-decoration-style: initial; text-decoration-color: initial;&quot;&gt;服务邮箱：support@wust.edu.cn&lt;/p&gt;" style="rounded=0;whiteSpace=wrap;html=1;sketch=1;hachureGap=4;jiggle=2;curveFitting=1;fontFamily=Architects Daughter;fontSource=https%3A%2F%2Ffonts.googleapis.com%2Fcss%3Ffamily%3DArchitects%2BDaughter;fontSize=45;fillColor=#60a917;fontColor=#ffffff;strokeColor=#2D7600;" vertex="1" parent="1">
          <mxGeometry x="455" y="2245" width="2460" height="410" as="geometry" />
        </mxCell>
        <mxCell id="Eh--7KShzJtrLP3c-lmi-23" value="" style="line;strokeWidth=2;html=1;sketch=1;hachureGap=4;jiggle=2;curveFitting=1;fontFamily=Architects Daughter;fontSource=https://fonts.googleapis.com/css?family=Architects+Daughter;fontSize=20;" vertex="1" parent="1">
          <mxGeometry x="450" y="1460" width="560" height="40" as="geometry" />
        </mxCell>
        <mxCell id="Eh--7KShzJtrLP3c-lmi-24" value="" style="shape=table;startSize=0;container=1;collapsible=0;childLayout=tableLayout;sketch=1;hachureGap=4;jiggle=2;curveFitting=1;fontFamily=Architects Daughter;fontSource=https%3A%2F%2Ffonts.googleapis.com%2Fcss%3Ffamily%3DArchitects%2BDaughter;fontSize=20;" vertex="1" parent="1">
          <mxGeometry x="1310" y="710" width="1250" height="960" as="geometry" />
        </mxCell>
        <mxCell id="Eh--7KShzJtrLP3c-lmi-25" value="" style="shape=tableRow;horizontal=0;startSize=0;swimlaneHead=0;swimlaneBody=0;strokeColor=inherit;top=0;left=0;bottom=0;right=0;collapsible=0;dropTarget=0;fillColor=none;points=[[0,0.5],[1,0.5]];portConstraint=eastwest;sketch=1;hachureGap=4;jiggle=2;curveFitting=1;fontFamily=Architects Daughter;fontSource=https%3A%2F%2Ffonts.googleapis.com%2Fcss%3Ffamily%3DArchitects%2BDaughter;fontSize=20;" vertex="1" parent="Eh--7KShzJtrLP3c-lmi-24">
          <mxGeometry width="1250" height="241" as="geometry" />
        </mxCell>
        <mxCell id="Eh--7KShzJtrLP3c-lmi-26" value="" style="shape=partialRectangle;html=1;whiteSpace=wrap;connectable=0;strokeColor=inherit;overflow=hidden;fillColor=none;top=0;left=0;bottom=0;right=0;pointerEvents=1;sketch=1;hachureGap=4;jiggle=2;curveFitting=1;fontFamily=Architects Daughter;fontSource=https%3A%2F%2Ffonts.googleapis.com%2Fcss%3Ffamily%3DArchitects%2BDaughter;fontSize=20;" vertex="1" parent="Eh--7KShzJtrLP3c-lmi-25">
          <mxGeometry width="179" height="241" as="geometry">
            <mxRectangle width="179" height="241" as="alternateBounds" />
          </mxGeometry>
        </mxCell>
        <mxCell id="Eh--7KShzJtrLP3c-lmi-27" value="" style="shape=partialRectangle;html=1;whiteSpace=wrap;connectable=0;strokeColor=inherit;overflow=hidden;fillColor=none;top=0;left=0;bottom=0;right=0;pointerEvents=1;sketch=1;hachureGap=4;jiggle=2;curveFitting=1;fontFamily=Architects Daughter;fontSource=https%3A%2F%2Ffonts.googleapis.com%2Fcss%3Ffamily%3DArchitects%2BDaughter;fontSize=20;" vertex="1" parent="Eh--7KShzJtrLP3c-lmi-25">
          <mxGeometry x="179" width="178" height="241" as="geometry">
            <mxRectangle width="178" height="241" as="alternateBounds" />
          </mxGeometry>
        </mxCell>
        <mxCell id="Eh--7KShzJtrLP3c-lmi-28" value="" style="shape=partialRectangle;html=1;whiteSpace=wrap;connectable=0;strokeColor=inherit;overflow=hidden;fillColor=none;top=0;left=0;bottom=0;right=0;pointerEvents=1;sketch=1;hachureGap=4;jiggle=2;curveFitting=1;fontFamily=Architects Daughter;fontSource=https%3A%2F%2Ffonts.googleapis.com%2Fcss%3Ffamily%3DArchitects%2BDaughter;fontSize=20;" vertex="1" parent="Eh--7KShzJtrLP3c-lmi-25">
          <mxGeometry x="357" width="179" height="241" as="geometry">
            <mxRectangle width="179" height="241" as="alternateBounds" />
          </mxGeometry>
        </mxCell>
        <mxCell id="Eh--7KShzJtrLP3c-lmi-29" value="" style="shape=partialRectangle;html=1;whiteSpace=wrap;connectable=0;strokeColor=inherit;overflow=hidden;fillColor=none;top=0;left=0;bottom=0;right=0;pointerEvents=1;sketch=1;hachureGap=4;jiggle=2;curveFitting=1;fontFamily=Architects Daughter;fontSource=https%3A%2F%2Ffonts.googleapis.com%2Fcss%3Ffamily%3DArchitects%2BDaughter;fontSize=20;" vertex="1" parent="Eh--7KShzJtrLP3c-lmi-25">
          <mxGeometry x="536" width="178" height="241" as="geometry">
            <mxRectangle width="178" height="241" as="alternateBounds" />
          </mxGeometry>
        </mxCell>
        <mxCell id="Eh--7KShzJtrLP3c-lmi-30" value="" style="shape=partialRectangle;html=1;whiteSpace=wrap;connectable=0;strokeColor=inherit;overflow=hidden;fillColor=none;top=0;left=0;bottom=0;right=0;pointerEvents=1;sketch=1;hachureGap=4;jiggle=2;curveFitting=1;fontFamily=Architects Daughter;fontSource=https%3A%2F%2Ffonts.googleapis.com%2Fcss%3Ffamily%3DArchitects%2BDaughter;fontSize=20;" vertex="1" parent="Eh--7KShzJtrLP3c-lmi-25">
          <mxGeometry x="714" width="179" height="241" as="geometry">
            <mxRectangle width="179" height="241" as="alternateBounds" />
          </mxGeometry>
        </mxCell>
        <mxCell id="Eh--7KShzJtrLP3c-lmi-31" value="" style="shape=partialRectangle;html=1;whiteSpace=wrap;connectable=0;strokeColor=inherit;overflow=hidden;fillColor=none;top=0;left=0;bottom=0;right=0;pointerEvents=1;sketch=1;hachureGap=4;jiggle=2;curveFitting=1;fontFamily=Architects Daughter;fontSource=https%3A%2F%2Ffonts.googleapis.com%2Fcss%3Ffamily%3DArchitects%2BDaughter;fontSize=20;" vertex="1" parent="Eh--7KShzJtrLP3c-lmi-25">
          <mxGeometry x="893" width="178" height="241" as="geometry">
            <mxRectangle width="178" height="241" as="alternateBounds" />
          </mxGeometry>
        </mxCell>
        <mxCell id="Eh--7KShzJtrLP3c-lmi-32" value="" style="shape=partialRectangle;html=1;whiteSpace=wrap;connectable=0;strokeColor=inherit;overflow=hidden;fillColor=none;top=0;left=0;bottom=0;right=0;pointerEvents=1;sketch=1;hachureGap=4;jiggle=2;curveFitting=1;fontFamily=Architects Daughter;fontSource=https%3A%2F%2Ffonts.googleapis.com%2Fcss%3Ffamily%3DArchitects%2BDaughter;fontSize=20;" vertex="1" parent="Eh--7KShzJtrLP3c-lmi-25">
          <mxGeometry x="1071" width="179" height="241" as="geometry">
            <mxRectangle width="179" height="241" as="alternateBounds" />
          </mxGeometry>
        </mxCell>
        <mxCell id="Eh--7KShzJtrLP3c-lmi-33" value="" style="shape=tableRow;horizontal=0;startSize=0;swimlaneHead=0;swimlaneBody=0;strokeColor=inherit;top=0;left=0;bottom=0;right=0;collapsible=0;dropTarget=0;fillColor=none;points=[[0,0.5],[1,0.5]];portConstraint=eastwest;sketch=1;hachureGap=4;jiggle=2;curveFitting=1;fontFamily=Architects Daughter;fontSource=https%3A%2F%2Ffonts.googleapis.com%2Fcss%3Ffamily%3DArchitects%2BDaughter;fontSize=20;" vertex="1" parent="Eh--7KShzJtrLP3c-lmi-24">
          <mxGeometry y="241" width="1250" height="239" as="geometry" />
        </mxCell>
        <mxCell id="Eh--7KShzJtrLP3c-lmi-34" value="" style="shape=partialRectangle;html=1;whiteSpace=wrap;connectable=0;strokeColor=inherit;overflow=hidden;fillColor=none;top=0;left=0;bottom=0;right=0;pointerEvents=1;sketch=1;hachureGap=4;jiggle=2;curveFitting=1;fontFamily=Architects Daughter;fontSource=https%3A%2F%2Ffonts.googleapis.com%2Fcss%3Ffamily%3DArchitects%2BDaughter;fontSize=20;" vertex="1" parent="Eh--7KShzJtrLP3c-lmi-33">
          <mxGeometry width="179" height="239" as="geometry">
            <mxRectangle width="179" height="239" as="alternateBounds" />
          </mxGeometry>
        </mxCell>
        <mxCell id="Eh--7KShzJtrLP3c-lmi-35" value="" style="shape=partialRectangle;html=1;whiteSpace=wrap;connectable=0;strokeColor=inherit;overflow=hidden;fillColor=none;top=0;left=0;bottom=0;right=0;pointerEvents=1;sketch=1;hachureGap=4;jiggle=2;curveFitting=1;fontFamily=Architects Daughter;fontSource=https%3A%2F%2Ffonts.googleapis.com%2Fcss%3Ffamily%3DArchitects%2BDaughter;fontSize=20;" vertex="1" parent="Eh--7KShzJtrLP3c-lmi-33">
          <mxGeometry x="179" width="178" height="239" as="geometry">
            <mxRectangle width="178" height="239" as="alternateBounds" />
          </mxGeometry>
        </mxCell>
        <mxCell id="Eh--7KShzJtrLP3c-lmi-36" value="" style="shape=partialRectangle;html=1;whiteSpace=wrap;connectable=0;strokeColor=inherit;overflow=hidden;fillColor=none;top=0;left=0;bottom=0;right=0;pointerEvents=1;sketch=1;hachureGap=4;jiggle=2;curveFitting=1;fontFamily=Architects Daughter;fontSource=https%3A%2F%2Ffonts.googleapis.com%2Fcss%3Ffamily%3DArchitects%2BDaughter;fontSize=20;" vertex="1" parent="Eh--7KShzJtrLP3c-lmi-33">
          <mxGeometry x="357" width="179" height="239" as="geometry">
            <mxRectangle width="179" height="239" as="alternateBounds" />
          </mxGeometry>
        </mxCell>
        <mxCell id="Eh--7KShzJtrLP3c-lmi-37" value="" style="shape=partialRectangle;html=1;whiteSpace=wrap;connectable=0;strokeColor=inherit;overflow=hidden;fillColor=none;top=0;left=0;bottom=0;right=0;pointerEvents=1;sketch=1;hachureGap=4;jiggle=2;curveFitting=1;fontFamily=Architects Daughter;fontSource=https%3A%2F%2Ffonts.googleapis.com%2Fcss%3Ffamily%3DArchitects%2BDaughter;fontSize=20;" vertex="1" parent="Eh--7KShzJtrLP3c-lmi-33">
          <mxGeometry x="536" width="178" height="239" as="geometry">
            <mxRectangle width="178" height="239" as="alternateBounds" />
          </mxGeometry>
        </mxCell>
        <mxCell id="Eh--7KShzJtrLP3c-lmi-38" value="" style="shape=partialRectangle;html=1;whiteSpace=wrap;connectable=0;strokeColor=inherit;overflow=hidden;fillColor=none;top=0;left=0;bottom=0;right=0;pointerEvents=1;sketch=1;hachureGap=4;jiggle=2;curveFitting=1;fontFamily=Architects Daughter;fontSource=https%3A%2F%2Ffonts.googleapis.com%2Fcss%3Ffamily%3DArchitects%2BDaughter;fontSize=20;" vertex="1" parent="Eh--7KShzJtrLP3c-lmi-33">
          <mxGeometry x="714" width="179" height="239" as="geometry">
            <mxRectangle width="179" height="239" as="alternateBounds" />
          </mxGeometry>
        </mxCell>
        <mxCell id="Eh--7KShzJtrLP3c-lmi-39" value="" style="shape=partialRectangle;html=1;whiteSpace=wrap;connectable=0;strokeColor=inherit;overflow=hidden;fillColor=none;top=0;left=0;bottom=0;right=0;pointerEvents=1;sketch=1;hachureGap=4;jiggle=2;curveFitting=1;fontFamily=Architects Daughter;fontSource=https%3A%2F%2Ffonts.googleapis.com%2Fcss%3Ffamily%3DArchitects%2BDaughter;fontSize=20;" vertex="1" parent="Eh--7KShzJtrLP3c-lmi-33">
          <mxGeometry x="893" width="178" height="239" as="geometry">
            <mxRectangle width="178" height="239" as="alternateBounds" />
          </mxGeometry>
        </mxCell>
        <mxCell id="Eh--7KShzJtrLP3c-lmi-40" value="" style="shape=partialRectangle;html=1;whiteSpace=wrap;connectable=0;strokeColor=inherit;overflow=hidden;fillColor=none;top=0;left=0;bottom=0;right=0;pointerEvents=1;sketch=1;hachureGap=4;jiggle=2;curveFitting=1;fontFamily=Architects Daughter;fontSource=https%3A%2F%2Ffonts.googleapis.com%2Fcss%3Ffamily%3DArchitects%2BDaughter;fontSize=20;" vertex="1" parent="Eh--7KShzJtrLP3c-lmi-33">
          <mxGeometry x="1071" width="179" height="239" as="geometry">
            <mxRectangle width="179" height="239" as="alternateBounds" />
          </mxGeometry>
        </mxCell>
        <mxCell id="Eh--7KShzJtrLP3c-lmi-41" value="" style="shape=tableRow;horizontal=0;startSize=0;swimlaneHead=0;swimlaneBody=0;strokeColor=inherit;top=0;left=0;bottom=0;right=0;collapsible=0;dropTarget=0;fillColor=none;points=[[0,0.5],[1,0.5]];portConstraint=eastwest;sketch=1;hachureGap=4;jiggle=2;curveFitting=1;fontFamily=Architects Daughter;fontSource=https%3A%2F%2Ffonts.googleapis.com%2Fcss%3Ffamily%3DArchitects%2BDaughter;fontSize=20;" vertex="1" parent="Eh--7KShzJtrLP3c-lmi-24">
          <mxGeometry y="480" width="1250" height="241" as="geometry" />
        </mxCell>
        <mxCell id="Eh--7KShzJtrLP3c-lmi-42" value="" style="shape=partialRectangle;html=1;whiteSpace=wrap;connectable=0;strokeColor=inherit;overflow=hidden;fillColor=none;top=0;left=0;bottom=0;right=0;pointerEvents=1;sketch=1;hachureGap=4;jiggle=2;curveFitting=1;fontFamily=Architects Daughter;fontSource=https%3A%2F%2Ffonts.googleapis.com%2Fcss%3Ffamily%3DArchitects%2BDaughter;fontSize=20;" vertex="1" parent="Eh--7KShzJtrLP3c-lmi-41">
          <mxGeometry width="179" height="241" as="geometry">
            <mxRectangle width="179" height="241" as="alternateBounds" />
          </mxGeometry>
        </mxCell>
        <mxCell id="Eh--7KShzJtrLP3c-lmi-43" value="" style="shape=partialRectangle;html=1;whiteSpace=wrap;connectable=0;strokeColor=inherit;overflow=hidden;fillColor=none;top=0;left=0;bottom=0;right=0;pointerEvents=1;sketch=1;hachureGap=4;jiggle=2;curveFitting=1;fontFamily=Architects Daughter;fontSource=https%3A%2F%2Ffonts.googleapis.com%2Fcss%3Ffamily%3DArchitects%2BDaughter;fontSize=20;" vertex="1" parent="Eh--7KShzJtrLP3c-lmi-41">
          <mxGeometry x="179" width="178" height="241" as="geometry">
            <mxRectangle width="178" height="241" as="alternateBounds" />
          </mxGeometry>
        </mxCell>
        <mxCell id="Eh--7KShzJtrLP3c-lmi-44" value="" style="shape=partialRectangle;html=1;whiteSpace=wrap;connectable=0;strokeColor=inherit;overflow=hidden;fillColor=none;top=0;left=0;bottom=0;right=0;pointerEvents=1;sketch=1;hachureGap=4;jiggle=2;curveFitting=1;fontFamily=Architects Daughter;fontSource=https%3A%2F%2Ffonts.googleapis.com%2Fcss%3Ffamily%3DArchitects%2BDaughter;fontSize=20;" vertex="1" parent="Eh--7KShzJtrLP3c-lmi-41">
          <mxGeometry x="357" width="179" height="241" as="geometry">
            <mxRectangle width="179" height="241" as="alternateBounds" />
          </mxGeometry>
        </mxCell>
        <mxCell id="Eh--7KShzJtrLP3c-lmi-45" value="" style="shape=partialRectangle;html=1;whiteSpace=wrap;connectable=0;strokeColor=inherit;overflow=hidden;fillColor=none;top=0;left=0;bottom=0;right=0;pointerEvents=1;sketch=1;hachureGap=4;jiggle=2;curveFitting=1;fontFamily=Architects Daughter;fontSource=https%3A%2F%2Ffonts.googleapis.com%2Fcss%3Ffamily%3DArchitects%2BDaughter;fontSize=20;" vertex="1" parent="Eh--7KShzJtrLP3c-lmi-41">
          <mxGeometry x="536" width="178" height="241" as="geometry">
            <mxRectangle width="178" height="241" as="alternateBounds" />
          </mxGeometry>
        </mxCell>
        <mxCell id="Eh--7KShzJtrLP3c-lmi-46" value="" style="shape=partialRectangle;html=1;whiteSpace=wrap;connectable=0;strokeColor=inherit;overflow=hidden;fillColor=none;top=0;left=0;bottom=0;right=0;pointerEvents=1;sketch=1;hachureGap=4;jiggle=2;curveFitting=1;fontFamily=Architects Daughter;fontSource=https%3A%2F%2Ffonts.googleapis.com%2Fcss%3Ffamily%3DArchitects%2BDaughter;fontSize=20;" vertex="1" parent="Eh--7KShzJtrLP3c-lmi-41">
          <mxGeometry x="714" width="179" height="241" as="geometry">
            <mxRectangle width="179" height="241" as="alternateBounds" />
          </mxGeometry>
        </mxCell>
        <mxCell id="Eh--7KShzJtrLP3c-lmi-47" value="" style="shape=partialRectangle;html=1;whiteSpace=wrap;connectable=0;strokeColor=inherit;overflow=hidden;fillColor=none;top=0;left=0;bottom=0;right=0;pointerEvents=1;sketch=1;hachureGap=4;jiggle=2;curveFitting=1;fontFamily=Architects Daughter;fontSource=https%3A%2F%2Ffonts.googleapis.com%2Fcss%3Ffamily%3DArchitects%2BDaughter;fontSize=20;" vertex="1" parent="Eh--7KShzJtrLP3c-lmi-41">
          <mxGeometry x="893" width="178" height="241" as="geometry">
            <mxRectangle width="178" height="241" as="alternateBounds" />
          </mxGeometry>
        </mxCell>
        <mxCell id="Eh--7KShzJtrLP3c-lmi-48" value="" style="shape=partialRectangle;html=1;whiteSpace=wrap;connectable=0;strokeColor=inherit;overflow=hidden;fillColor=none;top=0;left=0;bottom=0;right=0;pointerEvents=1;sketch=1;hachureGap=4;jiggle=2;curveFitting=1;fontFamily=Architects Daughter;fontSource=https%3A%2F%2Ffonts.googleapis.com%2Fcss%3Ffamily%3DArchitects%2BDaughter;fontSize=20;" vertex="1" parent="Eh--7KShzJtrLP3c-lmi-41">
          <mxGeometry x="1071" width="179" height="241" as="geometry">
            <mxRectangle width="179" height="241" as="alternateBounds" />
          </mxGeometry>
        </mxCell>
        <mxCell id="Eh--7KShzJtrLP3c-lmi-49" value="" style="shape=tableRow;horizontal=0;startSize=0;swimlaneHead=0;swimlaneBody=0;strokeColor=inherit;top=0;left=0;bottom=0;right=0;collapsible=0;dropTarget=0;fillColor=none;points=[[0,0.5],[1,0.5]];portConstraint=eastwest;sketch=1;hachureGap=4;jiggle=2;curveFitting=1;fontFamily=Architects Daughter;fontSource=https%3A%2F%2Ffonts.googleapis.com%2Fcss%3Ffamily%3DArchitects%2BDaughter;fontSize=20;" vertex="1" parent="Eh--7KShzJtrLP3c-lmi-24">
          <mxGeometry y="721" width="1250" height="239" as="geometry" />
        </mxCell>
        <mxCell id="Eh--7KShzJtrLP3c-lmi-50" value="" style="shape=partialRectangle;html=1;whiteSpace=wrap;connectable=0;strokeColor=inherit;overflow=hidden;fillColor=none;top=0;left=0;bottom=0;right=0;pointerEvents=1;sketch=1;hachureGap=4;jiggle=2;curveFitting=1;fontFamily=Architects Daughter;fontSource=https%3A%2F%2Ffonts.googleapis.com%2Fcss%3Ffamily%3DArchitects%2BDaughter;fontSize=20;" vertex="1" parent="Eh--7KShzJtrLP3c-lmi-49">
          <mxGeometry width="179" height="239" as="geometry">
            <mxRectangle width="179" height="239" as="alternateBounds" />
          </mxGeometry>
        </mxCell>
        <mxCell id="Eh--7KShzJtrLP3c-lmi-51" value="" style="shape=partialRectangle;html=1;whiteSpace=wrap;connectable=0;strokeColor=inherit;overflow=hidden;fillColor=none;top=0;left=0;bottom=0;right=0;pointerEvents=1;sketch=1;hachureGap=4;jiggle=2;curveFitting=1;fontFamily=Architects Daughter;fontSource=https%3A%2F%2Ffonts.googleapis.com%2Fcss%3Ffamily%3DArchitects%2BDaughter;fontSize=20;" vertex="1" parent="Eh--7KShzJtrLP3c-lmi-49">
          <mxGeometry x="179" width="178" height="239" as="geometry">
            <mxRectangle width="178" height="239" as="alternateBounds" />
          </mxGeometry>
        </mxCell>
        <mxCell id="Eh--7KShzJtrLP3c-lmi-52" value="" style="shape=partialRectangle;html=1;whiteSpace=wrap;connectable=0;strokeColor=inherit;overflow=hidden;fillColor=none;top=0;left=0;bottom=0;right=0;pointerEvents=1;sketch=1;hachureGap=4;jiggle=2;curveFitting=1;fontFamily=Architects Daughter;fontSource=https%3A%2F%2Ffonts.googleapis.com%2Fcss%3Ffamily%3DArchitects%2BDaughter;fontSize=20;" vertex="1" parent="Eh--7KShzJtrLP3c-lmi-49">
          <mxGeometry x="357" width="179" height="239" as="geometry">
            <mxRectangle width="179" height="239" as="alternateBounds" />
          </mxGeometry>
        </mxCell>
        <mxCell id="Eh--7KShzJtrLP3c-lmi-53" value="" style="shape=partialRectangle;html=1;whiteSpace=wrap;connectable=0;strokeColor=inherit;overflow=hidden;fillColor=none;top=0;left=0;bottom=0;right=0;pointerEvents=1;sketch=1;hachureGap=4;jiggle=2;curveFitting=1;fontFamily=Architects Daughter;fontSource=https%3A%2F%2Ffonts.googleapis.com%2Fcss%3Ffamily%3DArchitects%2BDaughter;fontSize=20;" vertex="1" parent="Eh--7KShzJtrLP3c-lmi-49">
          <mxGeometry x="536" width="178" height="239" as="geometry">
            <mxRectangle width="178" height="239" as="alternateBounds" />
          </mxGeometry>
        </mxCell>
        <mxCell id="Eh--7KShzJtrLP3c-lmi-54" value="" style="shape=partialRectangle;html=1;whiteSpace=wrap;connectable=0;strokeColor=inherit;overflow=hidden;fillColor=none;top=0;left=0;bottom=0;right=0;pointerEvents=1;sketch=1;hachureGap=4;jiggle=2;curveFitting=1;fontFamily=Architects Daughter;fontSource=https%3A%2F%2Ffonts.googleapis.com%2Fcss%3Ffamily%3DArchitects%2BDaughter;fontSize=20;" vertex="1" parent="Eh--7KShzJtrLP3c-lmi-49">
          <mxGeometry x="714" width="179" height="239" as="geometry">
            <mxRectangle width="179" height="239" as="alternateBounds" />
          </mxGeometry>
        </mxCell>
        <mxCell id="Eh--7KShzJtrLP3c-lmi-55" value="" style="shape=partialRectangle;html=1;whiteSpace=wrap;connectable=0;strokeColor=inherit;overflow=hidden;fillColor=none;top=0;left=0;bottom=0;right=0;pointerEvents=1;sketch=1;hachureGap=4;jiggle=2;curveFitting=1;fontFamily=Architects Daughter;fontSource=https%3A%2F%2Ffonts.googleapis.com%2Fcss%3Ffamily%3DArchitects%2BDaughter;fontSize=20;" vertex="1" parent="Eh--7KShzJtrLP3c-lmi-49">
          <mxGeometry x="893" width="178" height="239" as="geometry">
            <mxRectangle width="178" height="239" as="alternateBounds" />
          </mxGeometry>
        </mxCell>
        <mxCell id="Eh--7KShzJtrLP3c-lmi-56" value="" style="shape=partialRectangle;html=1;whiteSpace=wrap;connectable=0;strokeColor=inherit;overflow=hidden;fillColor=none;top=0;left=0;bottom=0;right=0;pointerEvents=1;sketch=1;hachureGap=4;jiggle=2;curveFitting=1;fontFamily=Architects Daughter;fontSource=https%3A%2F%2Ffonts.googleapis.com%2Fcss%3Ffamily%3DArchitects%2BDaughter;fontSize=20;" vertex="1" parent="Eh--7KShzJtrLP3c-lmi-49">
          <mxGeometry x="1071" width="179" height="239" as="geometry">
            <mxRectangle width="179" height="239" as="alternateBounds" />
          </mxGeometry>
        </mxCell>
        <mxCell id="Eh--7KShzJtrLP3c-lmi-57" value="&lt;font style=&quot;font-size: 45px;&quot;&gt;分页&lt;/font&gt;" style="text;html=1;strokeColor=none;fillColor=none;align=center;verticalAlign=middle;whiteSpace=wrap;rounded=0;fontSize=20;fontFamily=Architects Daughter;" vertex="1" parent="1">
          <mxGeometry x="1770" y="1750" width="350" height="140" as="geometry" />
        </mxCell>
        <mxCell id="Eh--7KShzJtrLP3c-lmi-58" value="&lt;span style=&quot;font-size: 45px;&quot;&gt;员工工资情况表&lt;/span&gt;" style="text;html=1;strokeColor=none;fillColor=none;align=center;verticalAlign=middle;whiteSpace=wrap;rounded=0;fontSize=20;fontFamily=Architects Daughter;" vertex="1" parent="1">
          <mxGeometry x="1320" y="485.49" width="350" height="140" as="geometry" />
        </mxCell>
        <mxCell id="Eh--7KShzJtrLP3c-lmi-60" value="&lt;font style=&quot;font-size: 45px;&quot;&gt;财务部门管理&lt;/font&gt;" style="rounded=0;whiteSpace=wrap;html=1;sketch=1;hachureGap=4;jiggle=2;curveFitting=1;fontFamily=Architects Daughter;fontSource=https%3A%2F%2Ffonts.googleapis.com%2Fcss%3Ffamily%3DArchitects%2BDaughter;fontSize=20;fillColor=#33FFFF;" vertex="1" parent="1">
          <mxGeometry x="465" y="1320" width="560" height="150" as="geometry" />
        </mxCell>
      </root>
    </mxGraphModel>
  </diagram>
</mxfile>
